<?xml version="1.0" standalone="no"?>
<!DOCTYPE svg PUBLIC "-//W3C//DTD SVG 20010904//EN"
 "http://www.w3.org/TR/2001/REC-SVG-20010904/DTD/svg10.dtd">
<svg version="1.0" xmlns="http://www.w3.org/2000/svg"
 width="1328.000000pt" height="481.000000pt" viewBox="0 0 1328.000000 481.000000"
 preserveAspectRatio="xMidYMid meet">

<g transform="translate(0.000000,481.000000) scale(0.100000,-0.100000)"
fill="#000000" stroke="none">
<path d="M2650 4153 c-263 -25 -501 -101 -715 -229 -160 -95 -164 -89 58 -92
169 -2 202 -5 277 -27 97 -28 183 -43 254 -47 45 -2 52 1 70 27 30 42 63 75
76 75 6 0 10 -29 10 -75 0 -88 5 -91 76 -40 40 29 51 32 62 21 17 -17 7 -55
-24 -92 -19 -21 -24 -37 -21 -59 10 -68 -36 -86 -89 -34 l-31 30 -47 -40 c-26
-23 -51 -41 -55 -41 -5 0 -20 -11 -35 -25 -42 -39 -35 -68 32 -117 69 -51 82
-66 124 -143 l32 -60 8 44 c4 24 27 75 52 115 43 70 44 72 39 138 -5 57 -3 69
11 74 25 9 87 -37 116 -86 14 -24 35 -54 48 -68 l23 -24 23 21 c12 11 25 21
28 21 3 0 15 -28 27 -61 14 -43 35 -77 69 -113 46 -49 48 -54 61 -142 10 -71
11 -96 1 -113 -23 -44 -76 1 -86 74 -10 75 -14 85 -33 85 -10 0 -36 -19 -56
-42 l-38 -41 52 -49 c69 -64 60 -80 -43 -77 -40 2 -77 -1 -84 -5 -7 -4 -21
-25 -32 -46 -21 -40 -24 -43 -105 -60 -68 -15 -75 -23 -75 -88 0 -51 -3 -57
-42 -96 -24 -23 -58 -53 -76 -66 -28 -22 -34 -35 -46 -98 -8 -40 -16 -75 -19
-78 -13 -13 -38 14 -60 66 -14 32 -29 60 -34 62 -4 3 -57 -1 -117 -8 -115 -13
-149 -28 -173 -75 -16 -31 -16 -147 0 -179 19 -38 67 -39 124 -1 26 17 57 31
71 31 23 0 24 -2 18 -45 -9 -59 6 -89 43 -82 41 8 53 -5 66 -74 9 -52 16 -66
36 -76 41 -21 100 -15 164 17 33 16 74 30 90 30 53 0 138 -27 199 -64 33 -20
101 -52 153 -72 93 -36 121 -59 137 -110 5 -17 18 -23 54 -29 102 -15 232 -86
232 -126 0 -12 -15 -38 -33 -59 -18 -21 -40 -60 -50 -87 -28 -78 -67 -117
-147 -148 -71 -27 -120 -70 -120 -104 0 -20 -36 -55 -101 -99 -26 -17 -49 -38
-52 -45 -3 -8 -38 -36 -77 -62 -69 -46 -90 -73 -90 -117 0 -20 4 -20 73 -14
602 59 1118 428 1357 971 34 78 40 99 29 106 -22 14 -65 10 -79 -6 -7 -8 -19
-15 -27 -15 -24 0 -102 71 -113 103 -5 17 -10 81 -10 144 0 125 11 161 53 180
20 9 28 24 37 70 21 99 34 123 70 123 18 0 48 8 67 17 42 20 60 12 85 -38 l18
-34 -1 65 c-1 36 -3 57 -6 48 -2 -10 -13 -18 -24 -18 -22 0 -58 67 -59 108 0
43 -18 21 -25 -30 -10 -82 -13 -88 -44 -88 -46 0 -64 31 -65 108 -1 62 1 67
22 70 20 3 21 7 16 43 -6 34 -3 42 25 68 35 33 38 47 15 80 -21 30 -42 108
-50 193 -7 72 3 89 25 42 6 -15 14 -24 18 -21 3 3 -12 37 -32 74 -233 420
-636 722 -1096 822 -158 34 -352 48 -489 34z m368 -143 c23 -17 42 -37 42 -45
0 -21 -35 -54 -76 -71 -30 -13 -38 -12 -63 0 -16 9 -31 22 -34 31 -9 22 -51
18 -107 -10 -57 -29 -90 -32 -90 -9 0 43 33 64 152 94 26 7 53 19 59 26 20 24
73 16 117 -16z m-360 -2 c18 -18 14 -45 -10 -68 -17 -15 -35 -20 -79 -20 -68
0 -89 16 -70 56 10 22 16 25 44 20 19 -3 42 0 57 9 31 18 43 18 58 3z m716
-159 c138 -72 252 -132 254 -133 8 -8 43 -170 40 -188 -2 -17 -12 -24 -41 -30
-75 -16 -167 -82 -167 -120 0 -31 -28 -32 -72 -2 -70 49 -77 67 -118 299 -24
143 -33 155 -116 164 -53 5 -59 8 -58 29 3 95 5 112 16 112 6 0 124 -59 262
-131z m-948 75 c31 -14 75 -26 96 -26 21 0 40 -4 43 -7 2 -4 -7 -31 -21 -60
-23 -51 -25 -53 -57 -47 -17 4 -44 8 -59 10 -25 2 -87 25 -128 46 -44 22 2
103 61 109 4 1 33 -11 65 -25z m529 -90 c63 -29 122 -94 180 -196 26 -47 -7
-82 -51 -53 -13 8 -26 15 -30 15 -3 0 -3 -29 1 -64 4 -41 3 -66 -4 -70 -15
-10 -60 16 -117 67 -27 24 -60 50 -74 58 -25 13 -24 13 24 20 59 9 81 28 73
62 -11 42 -44 73 -132 123 -47 27 -85 52 -85 56 0 25 147 13 215 -18z m781
-429 c30 -12 35 -19 32 -42 -4 -41 -39 -42 -72 -3 -46 56 -30 74 40 45z
m-1137 -1055 c37 -10 91 -56 91 -76 0 -20 -22 -22 -75 -8 -27 8 -69 18 -93 23
-24 5 -46 11 -49 14 -12 13 8 37 39 46 44 12 48 13 87 1z m215 -129 c10 -10
14 -21 9 -23 -18 -9 -219 -8 -232 1 -11 7 -5 11 25 16 21 4 53 11 69 15 56 15
111 11 129 -9z"/>
<path d="M1506 3449 c-45 -36 -72 -50 -86 -46 -25 6 -42 -16 -108 -148 -221
-443 -224 -964 -8 -1410 249 -512 775 -869 1343 -911 l93 -7 -16 32 c-20 40
-15 70 36 221 34 99 38 120 30 151 -12 43 -29 60 -93 89 -51 24 -76 55 -140
173 -51 94 -50 128 9 228 27 47 44 87 42 101 -3 20 -9 23 -58 26 -78 3 -98 9
-105 32 -4 11 -38 36 -83 60 -42 22 -98 57 -124 78 -39 33 -57 40 -106 45 -75
8 -162 40 -190 70 -19 20 -22 33 -19 93 2 57 -3 79 -24 124 -29 61 -80 122
-86 103 -3 -7 5 -45 16 -86 12 -40 21 -84 21 -97 0 -22 -1 -22 -19 -6 -25 23
-68 106 -125 239 -56 133 -59 180 -19 379 25 125 26 141 15 198 l-13 62 40 67
c23 37 41 72 41 78 0 39 -112 113 -171 113 -16 0 -51 -19 -93 -51z"/>
<path d="M5380 3469 c-213 -38 -324 -190 -365 -506 -32 -246 -5 -425 77 -499
51 -47 88 -59 183 -59 106 1 168 24 251 91 l52 42 6 -59 7 -60 82 3 82 3 37
265 c20 146 39 280 41 298 l6 32 -109 0 c-126 0 -110 22 -136 -184 l-18 -138
-51 -38 c-64 -49 -93 -60 -159 -60 -105 0 -132 50 -123 229 9 186 46 331 100
390 49 53 86 61 293 61 l192 0 11 63 c18 106 19 103 -51 117 -83 15 -339 21
-408 9z"/>
<path d="M6324 3466 c-165 -38 -256 -141 -309 -350 -43 -168 -56 -358 -34
-470 16 -79 64 -154 119 -188 116 -72 377 -78 515 -13 147 70 227 248 254 564
22 250 -34 383 -185 441 -75 29 -267 37 -360 16z m258 -194 c46 -27 62 -86 55
-200 -7 -106 -36 -272 -61 -341 -37 -102 -97 -144 -206 -144 -81 0 -121 19
-145 69 -44 94 15 480 88 575 20 25 66 52 105 60 50 10 131 0 164 -19z"/>
<path d="M11007 3473 c-33 -2 -60 -9 -62 -16 -2 -7 -34 -226 -70 -487 -36
-261 -68 -492 -71 -512 l-6 -38 111 0 c107 0 111 1 116 23 2 12 14 90 25 172
11 83 23 162 26 178 l6 27 107 0 c94 0 110 -3 125 -19 13 -14 25 -71 44 -200
l27 -181 118 0 119 0 -6 28 c-3 15 -17 95 -32 177 -30 180 -50 228 -107 257
l-42 21 55 14 c119 30 174 111 187 273 7 101 -8 154 -61 206 -65 66 -113 77
-351 79 -110 1 -226 0 -258 -2z m420 -199 c24 -24 25 -30 20 -94 -6 -75 -33
-137 -69 -160 -16 -10 -60 -16 -149 -18 l-125 -4 20 151 20 151 128 0 c125 0
130 -1 155 -26z"/>
<path d="M7624 3448 c-12 -5 -29 -26 -39 -46 -15 -32 -361 -814 -416 -940
l-19 -43 121 3 121 3 52 130 53 130 180 3 180 2 12 -97 c7 -54 15 -115 18
-135 l6 -38 114 0 114 0 -6 33 c-3 17 -41 243 -84 501 -71 424 -81 471 -101
488 -19 15 -41 18 -154 17 -72 0 -140 -5 -152 -11z m166 -200 c0 -24 9 -113
20 -198 11 -85 20 -161 20 -167 0 -10 -32 -13 -125 -13 -69 0 -125 4 -125 8 0
5 31 83 69 174 38 92 74 182 81 202 9 28 17 36 36 36 22 0 24 -4 24 -42z"/>
<path d="M8487 3445 c-62 -24 -94 -52 -121 -108 -21 -44 -34 -116 -81 -452
-30 -220 -57 -415 -60 -432 l-6 -33 116 0 c63 0 115 2 115 4 0 2 14 97 30 211
17 114 30 211 30 216 0 5 89 9 199 9 l199 0 7 58 c3 31 9 67 12 80 l5 22 -199
0 -200 0 16 108 c9 59 20 112 24 119 15 24 85 33 264 33 l182 0 6 33 c3 17 9
53 14 79 7 42 6 47 -13 52 -12 4 -129 9 -261 11 -196 4 -247 2 -278 -10z"/>
<path d="M9115 3448 c-2 -7 -6 -35 -10 -63 -3 -27 -9 -65 -12 -82 l-5 -32 154
-3 154 -3 -57 -405 c-32 -223 -58 -413 -58 -422 -1 -16 11 -18 113 -18 l113 0
59 423 59 422 155 5 155 5 12 80 c6 44 12 86 12 93 1 9 -89 12 -419 12 -328 0
-421 -3 -425 -12z"/>
<path d="M10210 3451 c-74 -24 -119 -63 -144 -122 -15 -36 -106 -651 -106
-716 0 -80 56 -155 134 -178 54 -16 271 -20 448 -8 l97 6 3 83 3 84 -186 0
c-207 0 -245 4 -259 30 -6 12 -4 57 7 134 l16 116 203 0 c230 0 208 -10 219
98 l7 62 -202 0 -202 0 7 63 c4 34 11 80 15 101 15 71 16 71 255 74 212 3 215
4 220 25 21 103 24 132 17 139 -12 12 -519 20 -552 9z"/>
<path d="M4397 2334 c-19 -142 -18 -194 1 -76 14 82 26 212 21 212 -3 0 -13
-61 -22 -136z"/>
<path d="M6410 1802 c-44 -21 -69 -70 -83 -162 -22 -144 34 -201 172 -174 54
11 34 24 -37 24 -96 0 -107 10 -107 97 1 87 21 158 53 183 19 15 40 20 88 20
64 0 92 13 51 24 -42 11 -102 6 -137 -12z"/>
<path d="M10270 1788 c0 -18 -3 -43 -6 -56 -6 -20 -11 -22 -53 -16 -32 4 -59
1 -83 -9 -32 -13 -39 -23 -52 -68 -46 -155 11 -220 128 -143 l39 26 -7 -26
c-4 -18 -2 -26 7 -26 10 0 19 46 35 168 26 197 26 182 7 182 -10 0 -15 -10
-15 -32z m-14 -115 c-3 -10 -8 -43 -11 -73 -6 -48 -12 -59 -43 -83 -48 -37
-105 -35 -110 2 -7 47 9 132 29 152 27 27 143 28 135 2z"/>
<path d="M7770 1784 c0 -31 23 -28 28 4 2 15 -2 22 -12 22 -11 0 -16 -9 -16
-26z"/>
<path d="M8144 1745 c-4 -25 -12 -35 -25 -35 -10 0 -21 -4 -24 -10 -3 -6 4
-10 16 -10 21 0 22 -3 16 -68 -4 -38 -10 -82 -13 -99 -8 -39 17 -65 59 -61 42
4 48 28 8 28 -18 0 -34 6 -37 13 -2 7 1 51 8 98 l13 84 43 3 c54 4 55 22 1 22
-41 0 -41 0 -37 35 3 24 0 35 -9 35 -6 0 -15 -16 -19 -35z"/>
<path d="M6670 1707 c-49 -17 -73 -64 -74 -143 -1 -84 13 -99 94 -99 78 0 106
25 122 112 15 81 1 118 -51 133 -44 12 -47 12 -91 -3z m105 -34 c23 -22 14
-116 -13 -152 -16 -22 -27 -26 -73 -26 -49 0 -54 2 -63 26 -14 40 2 118 29
145 29 29 95 33 120 7z"/>
<path d="M6994 1701 c-23 -11 -45 -24 -48 -30 -13 -21 -26 -11 -20 15 5 20 3
25 -7 22 -9 -3 -18 -34 -26 -89 -6 -46 -14 -99 -17 -116 -3 -24 -1 -33 9 -33
14 0 20 20 31 108 5 48 10 56 47 83 29 21 51 29 72 27 28 -3 30 -6 30 -43 -1
-22 -5 -71 -9 -109 -7 -56 -6 -68 5 -64 9 3 19 39 28 107 12 88 12 104 0 116
-25 23 -53 25 -95 6z"/>
<path d="M7230 1707 c-29 -10 -38 -20 -52 -62 -9 -27 -17 -71 -18 -97 0 -89
55 -110 141 -54 l36 24 -8 -46 c-5 -26 -11 -62 -14 -79 -5 -26 -2 -33 10 -33
8 0 15 2 15 4 0 10 41 293 45 313 4 17 -1 23 -23 27 -70 14 -100 15 -132 3z
m122 -22 c2 -3 1 -33 -4 -68 -8 -52 -15 -67 -44 -95 -29 -27 -42 -33 -72 -30
-34 3 -37 6 -40 38 -6 55 8 120 29 141 14 14 33 19 72 19 30 0 56 -2 59 -5z"/>
<path d="M7902 1713 c-30 -6 -56 -47 -48 -77 6 -23 24 -35 109 -70 28 -11 37
-21 37 -39 0 -31 -16 -37 -95 -37 -65 0 -93 -13 -52 -24 58 -15 152 -1 169 27
4 7 8 25 8 40 0 26 -8 32 -76 63 -69 32 -75 37 -72 62 3 27 4 27 86 30 45 2
82 7 82 12 0 6 -12 10 -27 10 -16 0 -44 2 -63 4 -19 2 -45 2 -58 -1z"/>
<path d="M8356 1710 c-45 -14 -64 -38 -76 -97 -26 -124 23 -172 149 -147 54
11 34 24 -39 24 -74 0 -90 11 -90 59 0 18 6 21 38 21 60 1 116 17 135 41 22
28 22 75 -1 88 -28 15 -85 21 -116 11z m100 -35 c9 -22 -3 -62 -20 -68 -8 -3
-42 -9 -75 -13 l-60 -7 9 33 c15 54 37 70 92 70 34 0 50 -5 54 -15z"/>
<path d="M8730 1707 c-49 -17 -73 -64 -74 -143 -1 -84 13 -99 94 -99 78 0 106
25 122 112 15 81 1 118 -51 133 -44 12 -47 12 -91 -3z m105 -34 c23 -22 14
-116 -13 -152 -16 -22 -27 -26 -73 -26 -49 0 -54 2 -63 26 -14 40 2 118 29
145 29 29 95 33 120 7z"/>
<path d="M9165 1706 c-17 -7 -36 -20 -44 -29 -20 -25 -34 -21 -27 9 5 19 3 25
-6 22 -8 -3 -18 -38 -25 -89 -6 -46 -14 -99 -17 -116 -3 -23 -1 -33 9 -33 13
0 17 17 31 113 5 38 13 53 42 77 37 30 85 40 98 19 3 -6 1 -53 -6 -105 -12
-91 -9 -124 10 -94 4 7 11 44 15 82 7 63 10 71 44 98 26 22 45 30 66 28 29 -3
30 -5 30 -48 -1 -25 -4 -73 -9 -107 -7 -52 -5 -63 7 -63 11 0 17 26 27 107 12
106 12 107 -10 125 -27 22 -61 16 -107 -18 -31 -24 -32 -24 -38 -3 -5 15 -44
42 -58 39 -1 -1 -16 -7 -32 -14z"/>
<path d="M9884 1701 c-23 -11 -45 -24 -48 -30 -13 -21 -26 -11 -20 15 5 20 3
25 -7 22 -9 -3 -18 -34 -26 -89 -6 -46 -14 -99 -17 -116 -3 -24 -1 -33 9 -33
14 0 20 20 31 108 5 48 10 56 47 83 29 21 51 29 72 27 28 -3 30 -6 30 -43 -1
-22 -5 -71 -9 -109 -7 -56 -6 -68 5 -64 9 3 19 39 28 107 12 88 12 104 0 116
-25 23 -53 25 -95 6z"/>
<path d="M10410 1707 c-49 -17 -73 -64 -74 -143 -1 -84 13 -99 94 -99 78 0
106 25 122 112 15 81 1 118 -51 133 -44 12 -47 12 -91 -3z m105 -34 c23 -22
14 -116 -13 -152 -16 -22 -27 -26 -73 -26 -49 0 -54 2 -63 26 -14 40 2 118 29
145 29 29 95 33 120 7z"/>
<path d="M7475 1698 c-5 -18 -25 -165 -25 -188 0 -55 72 -63 136 -15 l34 26 0
-25 c0 -15 5 -26 10 -26 6 0 10 3 10 8 0 4 7 50 15 102 18 118 18 130 1 130
-10 0 -16 -20 -21 -67 -4 -37 -11 -77 -15 -89 -12 -30 -74 -66 -107 -62 -26 3
-28 6 -28 48 1 25 4 73 9 108 6 44 5 62 -3 62 -7 0 -13 -6 -16 -12z"/>
<path d="M7759 1708 c0 -2 -8 -56 -18 -120 -14 -96 -15 -118 -4 -118 7 0 13 1
14 3 0 1 8 55 18 120 14 95 15 117 4 117 -7 0 -13 -1 -14 -2z"/>
<path d="M9515 1698 c-5 -18 -25 -165 -25 -188 0 -55 72 -63 136 -15 l34 26 0
-25 c0 -15 5 -26 10 -26 6 0 10 3 10 8 0 4 7 50 15 102 18 118 18 130 1 130
-10 0 -16 -20 -21 -67 -4 -37 -11 -77 -15 -89 -12 -30 -74 -66 -107 -62 -26 3
-28 6 -28 48 1 25 4 73 9 108 6 44 5 62 -3 62 -7 0 -13 -6 -16 -12z"/>
</g>
</svg>
